<?xml version="1.0" standalone="no"?>
<!DOCTYPE svg PUBLIC "-//W3C//DTD SVG 20010904//EN"
 "http://www.w3.org/TR/2001/REC-SVG-20010904/DTD/svg10.dtd">
<svg version="1.0" xmlns="http://www.w3.org/2000/svg"
 width="350.000000pt" height="350.000000pt" viewBox="0 0 350.000000 350.000000"
 preserveAspectRatio="xMidYMid meet">

<g transform="translate(0.000000,350.000000) scale(0.100000,-0.100000)"
fill="#000000" stroke="none">
<path d="M1835 3209 c-11 -17 1 -22 100 -34 53 -7 99 -15 102 -19 7 -7 -33
-93 -72 -156 -12 -19 -25 -48 -29 -65 -9 -34 -21 -45 -53 -45 -41 0 -50 21
-39 89 9 58 12 62 35 60 43 -2 51 0 51 16 0 10 -14 17 -40 21 -28 5 -40 12
-40 23 0 24 -20 41 -47 41 -18 0 -23 -6 -23 -25 0 -21 -5 -25 -30 -25 -41 0
-40 -28 1 -37 l31 -6 -4 -65 c-5 -75 -22 -95 -78 -90 -34 3 -35 4 -38 50 -3
49 -22 74 -47 64 -11 -4 -15 -20 -15 -59 0 -65 -19 -98 -45 -77 -12 10 -16 27
-13 74 3 55 1 61 -17 61 -12 0 -25 -11 -33 -27 -21 -45 -48 -36 -57 18 -8 55
-31 81 -81 90 -44 8 -85 -11 -133 -60 -52 -53 -62 -173 -22 -242 27 -45 26
-50 -3 -58 -46 -11 -56 1 -56 66 0 72 -23 126 -56 134 -34 9 -74 -20 -74 -52
0 -22 -2 -23 -21 -14 -16 9 -26 8 -44 -4 -48 -31 -41 -116 16 -188 34 -43 35
-50 11 -71 -27 -24 -59 -21 -87 9 -25 27 -55 27 -55 1 0 -7 9 -30 20 -51 10
-22 17 -43 14 -47 -3 -5 -24 1 -46 12 -28 14 -52 19 -73 16 -28 -5 -38 0 -66
29 -35 36 -75 45 -86 18 -8 -21 13 -57 75 -126 42 -47 52 -66 52 -94 0 -48
-19 -81 -79 -137 -42 -39 -56 -47 -89 -47 -33 0 -45 6 -75 39 -56 62 -59 152
-6 220 41 52 8 72 -35 21 -45 -54 -60 -157 -32 -223 19 -48 71 -95 112 -103
29 -5 33 -9 22 -21 -6 -8 -28 -23 -48 -33 -43 -22 -64 -64 -65 -130 l0 -45 43
-3 c32 -2 51 3 79 23 43 29 61 31 70 10 3 -9 19 -23 35 -31 25 -13 38 -14 81
-3 107 25 130 49 125 132 -3 51 -4 53 -49 76 l-46 24 -63 -38 c-36 -22 -71
-52 -82 -71 -11 -19 -28 -34 -38 -34 -9 0 -29 -9 -43 -20 -38 -30 -67 -27 -67
8 0 35 8 46 47 66 45 23 220 221 234 265 6 20 23 46 38 58 l26 21 -32 34 c-18
19 -33 42 -33 51 0 20 7 21 40 2 14 -8 37 -14 51 -15 27 0 69 32 69 54 0 7 14
16 32 20 19 4 47 23 73 51 22 25 45 45 51 45 6 0 21 11 34 26 17 17 31 23 46
20 14 -4 43 5 77 23 31 16 69 32 86 36 48 10 82 44 113 112 21 47 33 63 48 63
15 0 20 -7 20 -24 0 -52 88 -86 123 -48 14 15 28 18 70 14 33 -2 66 1 88 11
30 12 38 12 54 1 10 -8 36 -14 57 -14 22 0 53 -7 70 -16 21 -11 46 -15 75 -11
40 4 43 3 43 -20 0 -13 7 -26 16 -30 18 -7 31 11 49 61 22 63 50 35 33 -33 -6
-22 -8 -47 -4 -56 9 -23 35 -18 48 10 13 30 38 33 38 6 0 -32 46 -78 85 -85
38 -8 66 3 106 41 23 21 30 23 49 13 12 -6 36 -11 53 -10 72 4 73 -8 4 -30
-40 -13 -57 -34 -57 -74 0 -29 26 -50 91 -71 34 -12 49 -22 53 -39 10 -40 72
-111 115 -131 31 -14 41 -24 41 -42 0 -13 6 -39 14 -58 l14 -34 -29 1 c-67 2
-90 -71 -35 -108 21 -13 34 -14 82 -5 65 12 67 11 85 -54 17 -62 45 -109 84
-143 67 -59 78 -25 15 44 -43 47 -53 72 -22 55 24 -13 48 -9 72 12 46 39 8 87
-75 96 -63 7 -82 25 -41 40 13 6 30 20 36 31 35 65 -51 121 -132 86 -11 -5
-18 -1 -23 13 -12 37 4 59 54 76 55 18 121 74 121 103 0 42 -23 42 -92 -3
l-67 -44 -15 24 c-21 32 -78 43 -110 22 -17 -12 -26 -13 -35 -4 -17 17 -13 31
14 57 44 41 25 82 -26 54 -32 -18 -72 -17 -116 1 -29 12 -33 18 -23 29 17 21
76 39 111 34 57 -9 53 15 -15 80 -35 34 -69 62 -75 62 -6 0 -15 -9 -21 -20 -6
-11 -16 -17 -25 -14 -22 9 -18 27 9 53 22 21 29 22 57 12 43 -15 59 -14 59 5
0 8 -16 22 -35 30 -19 8 -35 16 -35 19 0 3 37 71 46 83 1 2 35 -19 75 -47 40
-28 80 -51 91 -51 27 0 23 39 -5 49 -13 5 -59 32 -102 60 -84 55 -125 65 -125
31 0 -41 -94 -203 -150 -259 -33 -32 -67 -40 -88 -19 -21 21 -13 26 32 21 37
-5 46 -2 60 18 23 33 20 54 -10 78 -35 28 -66 26 -102 -4 -37 -31 -62 -32 -62
-4 0 12 -14 34 -31 50 l-31 29 17 51 c15 43 15 53 4 60 -24 15 -39 10 -50 -18
-30 -85 -93 -153 -139 -153 -20 0 -22 3 -15 38 3 20 20 62 37 92 17 30 42 75
56 100 13 25 27 48 31 52 6 7 98 -14 190 -41 35 -11 51 -7 51 10 0 24 -166 70
-335 94 -128 18 -171 19 -180 4z m-456 -216 c6 -21 7 -41 3 -45 -10 -10 -83 8
-94 24 -14 22 -4 52 21 65 34 16 58 1 70 -44z m-115 -68 c11 -8 41 -18 68 -21
53 -7 56 -14 34 -69 -43 -101 -136 -65 -136 52 0 56 4 61 34 38z m-174 -109
c-1 -17 -2 -18 -9 -6 -5 8 -12 26 -15 40 -7 24 -6 24 8 6 9 -11 16 -29 16 -40z
m1267 -13 c-9 -9 -20 -12 -28 -8 -9 6 -8 11 6 21 23 17 42 6 22 -13z m-1350
-96 c-5 -15 -37 46 -37 70 1 11 9 3 21 -20 11 -21 18 -44 16 -50z m73 -17
c-16 -29 -20 -25 -20 22 0 41 0 42 15 20 12 -16 13 -26 5 -42z m1724 -249 c8
-13 -21 -34 -39 -27 -25 9 -18 36 9 36 14 0 27 -4 30 -9z m146 -189 c0 -4 -13
-9 -30 -10 -16 -1 -30 2 -30 8 0 5 14 10 30 10 17 0 30 -4 30 -8z m-146 -58
c25 -9 19 -24 -9 -24 -24 0 -32 10 -18 23 8 8 8 8 27 1z m229 -115 c-8 -8 -16
-8 -30 0 -16 9 -14 10 12 11 21 0 26 -3 18 -11z m-2235 -25 c12 -8 22 -23 22
-32 0 -25 -26 -59 -49 -65 -18 -4 -20 0 -18 37 0 22 -2 49 -7 59 -11 22 20 23
52 1z m-103 -34 c-3 -5 -13 -10 -21 -10 -8 0 -12 5 -9 10 3 6 13 10 21 10 8 0
12 -4 9 -10z m10 -60 c-3 -5 -11 -10 -16 -10 -6 0 -7 5 -4 10 3 6 11 10 16 10
6 0 7 -4 4 -10z"/>
<path d="M792 2667 c-7 -7 -7 -18 -2 -27 7 -11 11 -11 24 -1 9 8 16 20 16 27
0 18 -24 18 -38 1z"/>
<path d="M2742 2618 c2 -15 11 -24 26 -26 24 -4 30 16 10 36 -20 20 -40 14
-36 -10z"/>
<path d="M2227 2395 c-9 -8 -13 -24 -10 -35 9 -34 -35 -125 -83 -170 -49 -45
-51 -52 -29 -70 21 -18 55 1 100 56 63 77 93 185 59 218 -19 20 -19 20 -37 1z"/>
<path d="M1360 2354 c-14 -2 -74 -12 -135 -21 -103 -15 -111 -18 -142 -52 -61
-65 -65 -97 -66 -529 -2 -382 -2 -388 22 -462 13 -41 30 -82 38 -91 28 -33
165 -79 234 -79 35 0 93 -5 129 -10 163 -25 406 -5 503 41 48 22 76 29 124 29
62 0 78 3 243 42 104 25 167 59 176 94 4 14 2 57 -5 94 -6 38 -11 101 -11 140
0 77 -31 246 -56 311 -25 62 -55 79 -134 79 -85 0 -205 -22 -266 -50 -63 -27
-94 -27 -94 3 0 12 -6 51 -14 87 -8 36 -19 94 -25 129 -6 35 -18 72 -28 83
-10 11 -82 52 -160 91 -139 69 -145 71 -225 73 -46 1 -94 0 -108 -2z m250 -96
l65 -31 -129 -13 c-70 -7 -149 -20 -175 -28 -45 -15 -48 -15 -140 17 -51 17
-93 37 -94 42 0 23 248 57 353 49 33 -3 81 -17 120 -36z m-412 -109 c74 -25
92 -34 88 -47 -28 -94 -30 -441 -2 -577 8 -44 16 -97 16 -117 0 -20 6 -61 14
-90 7 -29 17 -72 21 -95 l7 -43 -37 0 c-20 0 -70 12 -110 26 l-74 26 -22 72
c-22 69 -23 83 -22 441 0 346 5 435 21 435 4 0 49 -14 100 -31z m617 -11 c11
-45 37 -214 39 -248 l1 -35 -55 -6 c-30 -4 -151 -10 -267 -14 l-213 -8 0 26
c0 53 22 232 31 249 19 35 134 54 341 57 114 1 118 0 123 -21z m532 -275 c3
-7 -16 -14 -54 -18 -118 -13 -123 -18 -91 -94 12 -28 19 -53 16 -56 -8 -9
-267 -49 -273 -43 -9 9 -26 138 -19 149 3 5 16 9 28 9 13 0 44 9 69 20 25 11
74 27 109 34 75 17 210 16 215 -1z m-482 -120 c3 -27 8 -63 11 -80 l5 -33 -45
0 c-38 0 -52 6 -96 44 -28 24 -71 55 -96 67 -24 13 -44 27 -44 31 0 4 37 9 83
11 45 1 103 4 129 5 l47 2 6 -47z m469 15 c10 -40 7 -48 -22 -48 -21 0 -30 7
-39 30 -12 31 -7 38 33 39 14 1 24 -7 28 -21z m-817 -14 c21 -14 63 -39 93
-54 30 -15 65 -39 78 -53 l23 -24 -47 -7 c-93 -12 -106 -9 -196 52 -47 31
-101 69 -119 84 l-34 27 82 1 c72 0 87 -3 120 -26z m-131 -104 l57 -40 -55 0
c-42 0 -57 4 -62 16 -7 18 -8 64 -1 64 2 0 30 -18 61 -40z m1018 -11 c3 -17 6
-50 6 -74 l0 -42 -72 -14 c-99 -19 -100 -19 -113 21 -12 34 -14 35 -56 32 -24
-2 -54 3 -67 9 -18 10 -35 10 -87 -3 -55 -13 -65 -13 -70 -1 -9 24 3 31 63 38
31 4 113 18 182 30 222 42 206 42 214 4z m-511 -110 c20 -61 22 -119 5 -119
-31 1 -160 147 -137 154 26 9 54 14 85 15 29 1 32 -3 47 -50z m-439 -68 l88
-88 -32 -7 c-18 -3 -57 -6 -86 -6 -61 0 -59 -4 -68 118 -4 39 -3 72 2 72 4 0
47 -40 96 -89z m226 76 c8 -7 39 -40 68 -74 51 -59 52 -63 30 -67 -56 -11
-151 -15 -167 -7 -10 6 -48 44 -85 85 l-68 76 104 0 c66 -1 108 -5 118 -13z
m391 -79 c-3 -3 -27 -9 -53 -13 l-48 -7 0 29 c0 27 4 31 43 39 39 9 43 8 53
-16 6 -14 9 -28 5 -32z m99 26 c0 -9 -7 -14 -17 -12 -25 5 -28 28 -4 28 12 0
21 -6 21 -16z m243 -38 c16 -40 18 -103 5 -114 -37 -30 -264 -79 -375 -81
l-63 -1 0 63 0 64 93 17 c50 9 139 28 197 41 127 28 136 29 143 11z m-511
-225 c-27 -37 -74 -44 -284 -45 -211 -1 -209 -2 -226 79 -6 33 -5 40 8 42 8 1
96 9 195 18 99 10 212 22 250 29 l70 11 3 -54 c2 -42 -1 -61 -16 -80z"/>
<path d="M1358 1943 c-20 -25 -1 -41 58 -49 73 -9 109 3 109 36 0 24 -2 25
-78 25 -52 1 -81 -3 -89 -12z"/>
<path d="M2103 2313 c-9 -16 -41 -50 -71 -78 -47 -44 -55 -56 -59 -97 -9 -82
44 -175 80 -139 8 8 6 26 -7 65 -24 71 -16 97 40 138 47 34 90 99 80 124 -9
23 -44 16 -63 -13z"/>
<path d="M2272 2198 c-7 -7 -12 -20 -12 -29 0 -10 -27 -39 -61 -64 -60 -47
-66 -60 -37 -79 21 -13 123 56 144 96 19 36 18 74 -2 82 -20 8 -18 8 -32 -6z"/>
<path d="M2747 1595 c-92 -25 -111 -50 -105 -136 3 -41 6 -46 49 -68 l46 -24
63 38 c36 22 71 52 82 71 11 19 28 34 38 34 9 0 29 9 43 20 38 30 67 27 67 -7
0 -36 -8 -47 -47 -67 -45 -23 -220 -221 -234 -265 -6 -20 -23 -46 -38 -58
l-26 -21 33 -34 c17 -19 32 -42 32 -51 0 -20 -7 -21 -40 -2 -14 8 -37 14 -51
15 -25 0 -69 -32 -69 -50 0 -6 -18 -17 -40 -26 -22 -9 -54 -34 -71 -55 -17
-21 -36 -39 -43 -39 -7 0 -23 -11 -36 -26 -17 -17 -31 -23 -46 -20 -14 4 -43
-5 -77 -23 -31 -16 -69 -32 -86 -36 -48 -10 -82 -44 -113 -112 -21 -47 -33
-63 -48 -63 -15 0 -20 7 -20 24 0 52 -88 86 -123 48 -14 -15 -28 -18 -70 -14
-33 2 -66 -1 -88 -11 -30 -12 -38 -12 -54 -1 -10 8 -36 14 -57 14 -22 0 -53 7
-70 16 -21 11 -46 15 -75 11 -40 -4 -43 -3 -43 20 0 13 -7 26 -16 30 -18 7
-31 -11 -49 -61 -22 -63 -50 -35 -33 33 6 22 8 47 4 56 -9 23 -35 18 -48 -10
-13 -30 -38 -33 -38 -6 0 32 -46 78 -85 85 -38 8 -66 -3 -106 -41 -23 -21 -30
-23 -49 -13 -12 6 -36 11 -53 10 -72 -4 -73 8 -4 30 40 13 57 34 57 74 0 29
-26 50 -91 71 -34 12 -49 22 -53 39 -10 40 -72 111 -115 131 -31 14 -41 24
-41 42 0 13 -6 39 -14 58 l-14 34 29 -1 c67 -2 90 71 35 108 -21 13 -34 14
-82 5 -65 -12 -67 -11 -85 54 -17 62 -45 109 -84 143 -67 59 -78 25 -15 -44
43 -47 53 -72 22 -55 -24 13 -48 9 -72 -12 -46 -39 -8 -87 75 -96 63 -7 82
-25 41 -40 -13 -6 -30 -20 -36 -31 -35 -65 51 -121 132 -86 11 5 18 1 23 -13
12 -37 -4 -59 -54 -76 -55 -18 -121 -74 -121 -103 0 -42 23 -42 92 3 l67 44
15 -24 c21 -32 78 -43 110 -22 17 12 26 13 35 4 17 -17 13 -31 -14 -57 -44
-41 -25 -82 26 -54 32 18 72 17 116 -1 29 -12 33 -18 23 -29 -16 -20 -73 -38
-107 -35 -58 6 -58 -10 -1 -68 66 -68 86 -77 109 -49 14 17 20 19 30 9 10 -11
9 -18 -8 -40 -21 -28 -29 -29 -90 -17 -47 9 -45 -22 2 -42 19 -8 35 -16 35
-19 0 -3 -37 -71 -46 -83 -1 -2 -35 19 -75 47 -40 28 -80 51 -91 51 -27 0 -23
-39 5 -49 13 -5 59 -32 102 -60 90 -59 125 -66 125 -24 0 33 96 196 146 247
36 37 70 46 92 24 21 -21 13 -26 -32 -21 -37 5 -46 2 -60 -18 -23 -33 -20 -54
10 -78 35 -28 66 -26 102 4 37 31 62 32 62 4 0 -12 14 -34 31 -50 l31 -29 -17
-51 c-15 -43 -15 -53 -4 -60 24 -15 39 -10 50 19 30 84 93 152 139 152 20 0
22 -3 15 -37 -3 -21 -20 -63 -37 -93 -17 -30 -42 -75 -56 -100 -13 -25 -27
-48 -31 -52 -6 -7 -98 14 -190 41 -58 18 -73 -11 -18 -34 81 -34 348 -85 443
-85 31 0 53 15 40 27 -3 3 -49 12 -101 18 -53 7 -99 15 -102 19 -7 7 33 93 72
156 12 19 25 48 29 65 9 34 21 45 53 45 41 0 50 -21 39 -89 -9 -58 -12 -62
-35 -60 -43 2 -51 0 -51 -16 0 -10 14 -17 40 -21 28 -5 40 -12 40 -23 0 -24
20 -41 47 -41 18 0 23 6 23 25 0 21 5 25 30 25 41 0 40 28 -1 37 l-31 6 4 65
c5 75 22 95 78 90 34 -3 35 -4 38 -50 3 -49 22 -74 47 -64 11 4 15 20 15 59 0
65 19 98 45 77 12 -10 16 -27 13 -74 -3 -55 -1 -61 17 -61 12 0 25 11 33 28
21 44 48 35 57 -19 8 -55 31 -81 81 -90 44 -8 85 11 133 60 52 53 62 173 22
242 -27 45 -26 50 3 58 46 11 56 -1 56 -66 0 -72 23 -126 56 -134 34 -9 74 20
74 52 0 22 2 23 20 14 30 -16 58 4 70 50 12 45 -2 89 -45 146 -30 39 -31 46
-7 67 27 24 59 21 87 -9 25 -27 55 -27 55 -1 0 7 -9 30 -20 51 -10 22 -17 43
-14 47 3 5 24 -1 46 -12 28 -14 52 -19 73 -16 28 5 38 0 66 -29 35 -36 75 -45
86 -18 8 21 -13 57 -74 126 -43 47 -53 66 -53 94 0 48 19 81 79 137 42 39 56
47 89 47 33 0 45 -6 75 -39 56 -62 59 -152 6 -220 -41 -52 -8 -72 35 -21 45
54 60 157 32 223 -19 48 -71 95 -112 103 -29 5 -33 9 -22 21 6 8 28 23 48 33
43 22 64 64 65 130 l0 45 -43 3 c-32 2 -51 -3 -79 -23 -43 -29 -61 -31 -70
-10 -6 17 -55 46 -75 44 -7 0 -35 -7 -61 -14z m0 -87 c0 -24 2 -51 7 -60 11
-25 -24 -24 -55 1 -20 16 -22 23 -14 47 8 22 43 52 62 54 1 0 1 -19 0 -42z
m68 32 c-3 -5 -11 -10 -16 -10 -6 0 -7 5 -4 10 3 6 11 10 16 10 6 0 7 -4 4
-10z m20 -60 c-3 -5 -13 -10 -21 -10 -8 0 -12 5 -9 10 3 6 13 10 21 10 8 0 12
-4 9 -10z m-2335 -60 c12 -8 9 -10 -13 -10 -16 0 -26 4 -22 10 8 12 16 12 35
0z m230 -99 c0 -15 -16 -22 -34 -15 -25 9 -19 24 9 24 14 0 25 -4 25 -9z
m-120 -71 c0 -5 -13 -10 -30 -10 -16 0 -30 4 -30 8 0 4 14 9 30 10 17 1 30 -2
30 -8z m138 -183 c3 -12 -3 -17 -21 -17 -31 0 -40 10 -25 27 15 18 42 12 46
-10z m1692 -279 c0 -41 0 -42 -15 -20 -12 16 -13 26 -5 42 16 29 20 25 20 -22z
m75 -19 c9 -17 14 -38 12 -47 -2 -12 -9 -4 -20 22 -27 61 -20 80 8 25z m-274
-68 c25 -26 29 -37 29 -85 0 -59 -4 -64 -34 -41 -11 8 -41 18 -68 21 -53 7
-56 14 -34 68 13 31 49 66 69 66 5 0 22 -13 38 -29z m-1066 0 c6 -11 -29 -33
-39 -24 -7 7 12 33 25 33 4 0 10 -4 14 -9z m1259 -51 c7 -24 6 -24 -8 -6 -9
11 -16 29 -16 40 1 17 2 18 9 6 5 -8 12 -26 15 -40z m-252 -104 c18 -4 30 -15
34 -31 7 -29 -1 -44 -30 -55 -31 -11 -54 5 -65 47 -12 41 -7 56 17 49 10 -2
29 -7 44 -10z"/>
<path d="M710 898 c0 -8 5 -19 12 -26 20 -20 40 -14 36 11 -3 25 -48 39 -48
15z"/>
<path d="M2682 858 c-16 -16 -15 -38 1 -38 19 0 36 20 30 36 -6 17 -15 18 -31
2z"/>
</g>
</svg>
